<?xml version="1.0" encoding="UTF-8" standalone="no"?>
<!-- Created with Inkscape (http://www.inkscape.org/) -->

<svg
   width="512"
   height="512"
   viewBox="0 0 135.46666 135.46667"
   version="1.1"
   id="svg1"
   inkscape:version="1.4.2 (ebf0e940d0, 2025-05-08)"
   sodipodi:docname="icon.svg"
   inkscape:export-filename="/home/efanze/Pictures/Brand Items/2026/icon.png"
   inkscape:export-xdpi="405"
   inkscape:export-ydpi="405"
   xmlns:inkscape="http://www.inkscape.org/namespaces/inkscape"
   xmlns:sodipodi="http://sodipodi.sourceforge.net/DTD/sodipodi-0.dtd"
   xmlns:xlink="http://www.w3.org/1999/xlink"
   xmlns="http://www.w3.org/2000/svg"
   xmlns:svg="http://www.w3.org/2000/svg">
  <sodipodi:namedview
     id="namedview1"
     pagecolor="#505050"
     bordercolor="#eeeeee"
     borderopacity="1"
     inkscape:showpageshadow="0"
     inkscape:pageopacity="0"
     inkscape:pagecheckerboard="0"
     inkscape:deskcolor="#505050"
     inkscape:document-units="px"
     inkscape:zoom="1.436055"
     inkscape:cx="265.65835"
     inkscape:cy="268.79193"
     inkscape:window-width="1920"
     inkscape:window-height="1008"
     inkscape:window-x="0"
     inkscape:window-y="0"
     inkscape:window-maximized="1"
     inkscape:current-layer="layer1"
     showgrid="false" />
  <defs
     id="defs1">
    <linearGradient
       id="linearGradient8"
       inkscape:collect="always">
      <stop
         style="stop-color:#005eb8;stop-opacity:0.25;"
         offset="0"
         id="stop8" />
      <stop
         style="stop-color:#005eb8;stop-opacity:1;"
         offset="1"
         id="stop9" />
    </linearGradient>
    <linearGradient
       inkscape:collect="always"
       xlink:href="#linearGradient8"
       id="linearGradient9"
       x1="67.73333"
       y1="-3.621544e-06"
       x2="67.73333"
       y2="135.46666"
       gradientUnits="userSpaceOnUse" />
  </defs>
  <g
     inkscape:label="Layer 1"
     inkscape:groupmode="layer"
     id="layer1">
    <path
       id="rect17"
       style="display:inline;fill:url(#linearGradient9);stroke-width:0.204801"
       inkscape:label="bg"
       d="m 41.570801,0 h 52.325058 c 23.030221,0 41.570801,18.540577 41.570801,41.570801 v 52.325058 c 0,23.030221 -18.54058,41.570801 -41.570801,41.570801 H 41.570801 C 18.540577,135.46666 0,116.92608 0,93.895859 V 41.570801 C 0,18.540577 18.540577,0 41.570801,0 Z" />
    <path
       d="m 31.875642,86.386484 2.54,-4.841875 -19.84375,-9.723438 0.873125,-5.675312 19.565937,-8.294688 -0.833437,5.55625 -14.843125,5.675313 17.343437,7.977187 14.644688,-27.979687 h 6.270625 L 38.146267,86.386484 Z M 59.14097,82.020859 63.74472,53.048984 h 17.859375 l -0.833438,5.08 H 68.745345 l -1.031875,6.50875 h 10.63625 l -0.79375,5.08 H 66.91972 l -1.150938,7.223125 h 12.025313 l -0.79375,5.08 z m 23.534718,4.365625 19.407192,-37.30625 h 6.31031 l -3.65125,6.985 20.6375,10.040937 -0.91281,5.675313 -19.56594,8.294687 0.83344,-5.595937 11.7475,-4.841875 q 0.91281,-0.357188 1.98437,-0.555625 1.07156,-0.238125 1.70656,-0.277813 -0.635,-0.07937 -1.66687,-0.277812 -0.99219,-0.198438 -1.78594,-0.595313 L 102.44006,60.510234 88.986,86.386484 Z"
       id="text17"
       style="font-style:italic;font-weight:800;font-size:39.6875px;line-height:15.875px;font-family:'JetBrains Mono';-inkscape-font-specification:'JetBrains Mono Ultra-Bold Italic';text-align:center;text-anchor:middle;display:inline;fill:#0090c8;stroke-width:0.264583;fill-opacity:1"
       inkscape:label="text (path)"
       aria-label="&lt;/E/&gt;" />
    <text
       xml:space="preserve"
       style="font-style:italic;font-variant:normal;font-weight:800;font-stretch:normal;font-size:39.6875px;line-height:15.875px;font-family:'JetBrains Mono';-inkscape-font-specification:'JetBrains Mono Ultra-Bold Italic';text-align:center;writing-mode:lr-tb;direction:ltr;text-anchor:middle;display:none;fill:#0090c8;fill-opacity:1;stroke-width:0.264583"
       x="69.618477"
       y="82.020859"
       id="text5"
       inkscape:label="text"><tspan
         sodipodi:role="line"
         style="font-style:italic;font-variant:normal;font-weight:800;font-stretch:normal;font-size:39.6875px;line-height:15.875px;font-family:'JetBrains Mono';-inkscape-font-specification:'JetBrains Mono Ultra-Bold Italic';text-align:center;text-anchor:middle;fill:#0090c8;fill-opacity:1;stroke-width:0.264583"
         x="69.618477"
         y="82.020859"
         id="tspan5">&lt;/E/&gt;</tspan></text>
  </g>
</svg>
